<svg width="21" height="15" viewBox="0 0 21 15" fill="none" xmlns="http://www.w3.org/2000/svg">
<path d="M6.76598 12.3048H6.76694C6.76774 12.3048 6.76854 12.3047 6.76934 12.3047H17.9238C18.1984 12.3047 18.4399 12.1225 18.5153 11.8585L20.9763 3.2452C21.0293 3.05951 20.9921 2.85988 20.876 2.70575C20.7597 2.55162 20.5778 2.46094 20.3848 2.46094H5.34709L4.90729 0.481773C4.84465 0.200272 4.59503 0 4.30664 0H0.615234C0.275413 0 0 0.275413 0 0.615234C0 0.955055 0.275413 1.23047 0.615234 1.23047H3.81317C3.89104 1.58118 5.91779 10.7017 6.03442 11.2264C5.38058 11.5106 4.92187 12.1626 4.92187 12.9199C4.92187 13.9376 5.74988 14.7656 6.76758 14.7656H17.9238C18.2636 14.7656 18.5391 14.4902 18.5391 14.1504C18.5391 13.8106 18.2636 13.5352 17.9238 13.5352H6.76758C6.4284 13.5352 6.15234 13.2591 6.15234 12.9199C6.15234 12.5812 6.42744 12.3056 6.76598 12.3048ZM19.5691 3.69141L17.4597 11.0742H7.26105L5.62042 3.69141H19.5691Z" fill="black"/>
</svg>
