<svg width="18" height="17" viewBox="0 0 18 17" fill="none" xmlns="http://www.w3.org/2000/svg">
<path d="M12.825 0.5V0H12.8171L12.8092 0.000250757L12.825 0.5ZM9 2.28906L8.62787 2.623L9 3.03767L9.37213 2.623L9 2.28906ZM5.175 0.5L5.19083 0.000250757L5.18292 0H5.175V0.5ZM6.45 14.3284L6.80649 13.9778H6.80649L6.45 14.3284ZM8.388 16.299L8.7447 15.9486L8.74449 15.9484L8.388 16.299ZM8.8385 16.4891L8.83805 16.9891H8.8385V16.4891ZM9.1615 16.4891V16.9891H9.16195L9.1615 16.4891ZM9.612 16.299L9.25552 15.9484L9.2553 15.9486L9.612 16.299ZM11.55 14.3284L11.1935 13.9778V13.9778L11.55 14.3284ZM12.825 0.5L12.8092 0.000250757C11.211 0.0508874 9.70292 0.757157 8.62787 1.95511L9 2.28906L9.37213 2.623C10.2668 1.6261 11.5183 1.04165 12.8408 0.999749L12.825 0.5ZM9 2.28906L9.37213 1.95511C8.29708 0.757157 6.78905 0.0508874 5.19083 0.000250757L5.175 0.5L5.15917 0.999749C6.48172 1.04165 7.73324 1.6261 8.62787 2.623L9 2.28906ZM5.175 0.5V0C2.30911 0 0 2.35997 0 5.25353H0.5H1C1 2.89648 2.87703 1 5.175 1V0.5ZM0.5 5.25353H0C0 7.12546 1.10369 9.02293 2.36341 10.6396C3.63475 12.2711 5.15178 13.7215 6.09351 14.679L6.45 14.3284L6.80649 13.9778C5.83572 12.9908 4.37775 11.5977 3.15221 10.0249C1.91506 8.43725 1 6.76956 1 5.25353H0.5ZM6.45 14.3284L6.09351 14.679L8.03151 16.6496L8.388 16.299L8.74449 15.9484L6.80649 13.9778L6.45 14.3284ZM8.388 16.299L8.0313 16.6494C8.24375 16.8657 8.53376 16.9889 8.83805 16.9891L8.8385 16.4891L8.83895 15.9891C8.8052 15.9891 8.77113 15.9755 8.7447 15.9486L8.388 16.299ZM8.8385 16.4891V16.9891H9.1615V16.4891V15.9891H8.8385V16.4891ZM9.1615 16.4891L9.16195 16.9891C9.46624 16.9889 9.75625 16.8657 9.9687 16.6494L9.612 16.299L9.2553 15.9486C9.22887 15.9755 9.1948 15.9891 9.16105 15.9891L9.1615 16.4891ZM9.612 16.299L9.96849 16.6496L11.9065 14.679L11.55 14.3284L11.1935 13.9778L9.25552 15.9484L9.612 16.299ZM11.55 14.3284L11.9065 14.679C12.8482 13.7215 14.3653 12.2711 15.6366 10.6396C16.8963 9.02293 18 7.12546 18 5.25353H17.5H17C17 6.76956 16.0849 8.43725 14.8478 10.0249C13.6223 11.5977 12.1643 12.9908 11.1935 13.9778L11.55 14.3284ZM17.5 5.25353H18C18 2.35997 15.6909 0 12.825 0V0.5V1C15.123 1 17 2.89648 17 5.25353H17.5Z" fill="black"/>
</svg>
