<svg width="30" height="30" viewBox="0 0 30 30" fill="none" xmlns="http://www.w3.org/2000/svg">
<path d="M19.5 9H16.5C15.9477 9 15.5 9.44772 15.5 10V13H19.5C19.6137 12.9975 19.7216 13.0504 19.7892 13.1419C19.8568 13.2334 19.8758 13.352 19.84 13.46L19.1 15.66C19.0318 15.8619 18.8431 15.9984 18.63 16H15.5V23.5C15.5 23.7761 15.2761 24 15 24H12.5C12.2239 24 12 23.7761 12 23.5V16H10.5C10.2239 16 10 15.7761 10 15.5V13.5C10 13.2239 10.2239 13 10.5 13H12V10C12 7.79086 13.7909 6 16 6H19.5C19.7761 6 20 6.22386 20 6.5V8.5C20 8.77614 19.7761 9 19.5 9Z" fill="currentColor" />
<path d="M19.5 9H16.5C15.9477 9 15.5 9.44772 15.5 10V13H19.5C19.6137 12.9975 19.7216 13.0504 19.7892 13.1419C19.8568 13.2334 19.8758 13.352 19.84 13.46L19.1 15.66C19.0318 15.8619 18.8431 15.9984 18.63 16H15.5V23.5C15.5 23.7761 15.2761 24 15 24H12.5C12.2239 24 12 23.7761 12 23.5V16H10.5C10.2239 16 10 15.7761 10 15.5V13.5C10 13.2239 10.2239 13 10.5 13H12V10C12 7.79086 13.7909 6 16 6H19.5C19.7761 6 20 6.22386 20 6.5V8.5C20 8.77614 19.7761 9 19.5 9Z" fill="currentColor" />
</svg>
