<svg width="30" height="30" viewBox="0 0 30 30" fill="none" xmlns="http://www.w3.org/2000/svg">
<path fill-rule="evenodd" clip-rule="evenodd" d="M6 7.11765C6 5.9481 6.9481 5 8.11765 5C8.67928 5 9.21791 5.22311 9.61505 5.62024C10.0122 6.01738 10.2353 6.55601 10.2353 7.11765C10.2353 8.28719 9.28719 9.23529 8.11765 9.23529C6.9481 9.23529 6 8.28719 6 7.11765ZM24.5295 16.0223C24.566 13.7298 23.002 11.721 20.7707 11.1941C19.2753 10.8721 17.7167 11.2943 16.5883 12.327V11.8823C16.5883 11.5899 16.3513 11.3529 16.0589 11.3529H13.4118C13.1194 11.3529 12.8824 11.5899 12.8824 11.8823V22.4705C12.8824 22.7629 13.1194 22.9999 13.4118 22.9999H16.0589C16.3513 22.9999 16.5883 22.7629 16.5883 22.4705V16.4988C16.5622 15.4354 17.3033 14.5068 18.346 14.2964C18.9668 14.1892 19.6031 14.3641 20.0821 14.7734C20.561 15.1828 20.8328 15.7841 20.8236 16.4141V22.4705C20.8236 22.7629 21.0606 22.9999 21.353 22.9999H24.0001C24.2925 22.9999 24.5295 22.7629 24.5295 22.4705V16.0223ZM10.2353 11.8823V22.4705C10.2353 22.7629 9.99825 22.9999 9.70587 22.9999H7.05881C6.76642 22.9999 6.52939 22.7629 6.52939 22.4705V11.8823C6.52939 11.5899 6.76642 11.3529 7.05881 11.3529H9.70587C9.99825 11.3529 10.2353 11.5899 10.2353 11.8823Z" fill="currentColor" />
</svg>
