<svg width="128" height="26" viewBox="0 0 128 26" fill="none" xmlns="http://www.w3.org/2000/svg">
<path d="M11.9629 4.30664C11.849 4.26107 11.7122 4.18132 11.5527 4.06738C11.3932 3.95345 11.1654 3.85091 10.8691 3.75977C10.5729 3.64583 10.1969 3.55469 9.74121 3.48633C9.28548 3.41797 8.70443 3.40658 7.99805 3.45215V0C9.00065 0.0227865 10.0146 0.136719 11.04 0.341797C12.0882 0.524089 12.9313 0.820312 13.5693 1.23047C13.4326 1.52669 13.2731 1.8571 13.0908 2.22168C12.9085 2.56348 12.7376 2.89388 12.5781 3.21289C12.4186 3.50911 12.2819 3.75977 12.168 3.96484C12.054 4.16992 11.9857 4.28385 11.9629 4.30664ZM0.170898 7.04102C0.170898 6.03841 0.341797 5.13835 0.683594 4.34082C1.02539 3.54329 1.48112 2.84831 2.05078 2.25586C2.64323 1.64062 3.32682 1.16211 4.10156 0.820312C4.89909 0.455729 5.73079 0.216471 6.59668 0.102539V3.69141C5.86751 3.94206 5.26367 4.38639 4.78516 5.02441C4.30664 5.63965 4.06738 6.26628 4.06738 6.9043C4.06738 7.79297 4.30664 8.51074 4.78516 9.05762C5.26367 9.60449 5.86751 10.083 6.59668 10.4932V14.3896C5.84473 14.0251 5.09277 13.6377 4.34082 13.2275C3.58887 12.7946 2.90527 12.2933 2.29004 11.7236C1.6748 11.154 1.16211 10.4932 0.751953 9.74121C0.364583 8.98926 0.170898 8.08919 0.170898 7.04102ZM0.717773 20.9863C1.03678 21.1686 1.43555 21.3509 1.91406 21.5332C2.41536 21.6927 2.92806 21.8522 3.45215 22.0117C3.97624 22.1484 4.50033 22.2624 5.02441 22.3535C5.5485 22.4447 6.03841 22.4902 6.49414 22.4902H6.59668V25.7373H6.52832C5.98145 25.7373 5.41178 25.7031 4.81934 25.6348C4.24967 25.5892 3.66862 25.498 3.07617 25.3613C2.48372 25.2246 1.91406 25.0423 1.36719 24.8145C0.843099 24.5638 0.38737 24.2676 0 23.9258L0.717773 20.9863ZM7.99805 11.1768C8.75 11.5186 9.51335 11.8831 10.2881 12.2705C11.0856 12.6579 11.8034 13.1364 12.4414 13.7061C13.0794 14.2529 13.6035 14.9251 14.0137 15.7227C14.4238 16.5202 14.6289 17.5114 14.6289 18.6963C14.6289 19.5166 14.4694 20.3141 14.1504 21.0889C13.8542 21.8636 13.4212 22.57 12.8516 23.208C12.3047 23.8232 11.6211 24.3473 10.8008 24.7803C9.98047 25.2132 9.04622 25.498 7.99805 25.6348V22.3535C9.86654 21.8978 10.8008 20.6559 10.8008 18.6279C10.8008 17.8304 10.5387 17.1696 10.0146 16.6455C9.49056 16.1214 8.81836 15.6315 7.99805 15.1758V11.1768Z" fill="#A18A68"/>
<path d="M38.1445 0.410156V25.6006H34.043V14.2529H24.541V11.4502H34.043V0.410156H38.1445ZM18.9697 0.410156H23.1396V25.6006H18.9697V0.410156ZM43.9893 12.8857C43.9893 10.8577 44.2285 9.06901 44.707 7.51953C45.2083 5.94727 45.8919 4.62565 46.7578 3.55469C47.6465 2.46094 48.6833 1.62923 49.8682 1.05957C51.0758 0.467122 52.3861 0.125326 53.7988 0.0341797V3.45215C53.0241 3.54329 52.2949 3.78255 51.6113 4.16992C50.9277 4.55729 50.3353 5.12695 49.834 5.87891C49.3327 6.63086 48.9339 7.58789 48.6377 8.75C48.3415 9.91211 48.182 11.2907 48.1592 12.8857C48.182 14.5036 48.3415 15.8936 48.6377 17.0557C48.9339 18.195 49.3327 19.152 49.834 19.9268C50.3581 20.7015 50.9619 21.2939 51.6455 21.7041C52.3291 22.0915 53.0469 22.3193 53.7988 22.3877V25.7715C52.4089 25.6803 51.11 25.3499 49.9023 24.7803C48.6947 24.1878 47.6465 23.3561 46.7578 22.2852C45.8919 21.1914 45.2083 19.8584 44.707 18.2861C44.2285 16.7139 43.9893 14.9137 43.9893 12.8857ZM55.166 0.0341797C56.556 0.102539 57.8434 0.432943 59.0283 1.02539C60.236 1.61784 61.2728 2.46094 62.1387 3.55469C63.0273 4.62565 63.7223 5.94727 64.2236 7.51953C64.7249 9.06901 64.9756 10.8577 64.9756 12.8857C64.9756 14.9137 64.7249 16.7139 64.2236 18.2861C63.7223 19.8584 63.0273 21.1914 62.1387 22.2852C61.2728 23.3561 60.2474 24.1878 59.0625 24.7803C57.8776 25.3499 56.5788 25.6803 55.166 25.7715V22.3877C55.9408 22.2965 56.6699 22.0573 57.3535 21.6699C58.0371 21.2598 58.6296 20.6787 59.1309 19.9268C59.6322 19.152 60.0309 18.195 60.3271 17.0557C60.6234 15.8936 60.7829 14.5036 60.8057 12.8857C60.7829 11.2679 60.6234 9.88932 60.3271 8.75C60.0309 7.58789 59.6208 6.63086 59.0967 5.87891C58.5954 5.10417 58.0029 4.52311 57.3193 4.13574C56.6357 3.72559 55.918 3.48633 55.166 3.41797V0.0341797ZM70.7178 0.410156H74.8193V25.6006H70.7178V0.410156ZM77.9639 0.410156C79.0348 0.410156 80.0944 0.581055 81.1426 0.922852C82.1908 1.26465 83.125 1.77734 83.9453 2.46094C84.7884 3.14453 85.4606 3.97624 85.9619 4.95605C86.486 5.91309 86.748 6.99544 86.748 8.20312C86.748 9.47917 86.5316 10.6413 86.0986 11.6895C85.6657 12.7148 85.0618 13.5807 84.2871 14.2871C83.5124 14.9935 82.5781 15.5404 81.4844 15.9277C80.3906 16.3151 79.1829 16.5088 77.8613 16.5088H76.2207V13.501H78.5791C79.0804 13.501 79.5703 13.4212 80.0488 13.2617C80.5501 13.0794 81.0059 12.7946 81.416 12.4072C81.8262 12.0199 82.1566 11.4844 82.4072 10.8008C82.6579 10.0944 82.7832 9.22852 82.7832 8.20312C82.7832 7.79297 82.7262 7.32585 82.6123 6.80176C82.4984 6.25488 82.2591 5.74219 81.8945 5.26367C81.5527 4.76237 81.0628 4.35221 80.4248 4.0332C79.7868 3.69141 78.9437 3.52051 77.8955 3.52051H76.2207V0.410156H77.9639ZM91.3965 0.410156H95.498V25.6006H91.3965V0.410156ZM98.6426 0.410156C99.7135 0.410156 100.773 0.581055 101.821 0.922852C102.869 1.26465 103.804 1.77734 104.624 2.46094C105.467 3.14453 106.139 3.97624 106.641 4.95605C107.165 5.91309 107.427 6.99544 107.427 8.20312C107.427 9.47917 107.21 10.6413 106.777 11.6895C106.344 12.7148 105.741 13.5807 104.966 14.2871C104.191 14.9935 103.257 15.5404 102.163 15.9277C101.069 16.3151 99.8617 16.5088 98.54 16.5088H96.8994V13.501H99.2578C99.7591 13.501 100.249 13.4212 100.728 13.2617C101.229 13.0794 101.685 12.7946 102.095 12.4072C102.505 12.0199 102.835 11.4844 103.086 10.8008C103.337 10.0944 103.462 9.22852 103.462 8.20312C103.462 7.79297 103.405 7.32585 103.291 6.80176C103.177 6.25488 102.938 5.74219 102.573 5.26367C102.231 4.76237 101.742 4.35221 101.104 4.0332C100.465 3.69141 99.6224 3.52051 98.5742 3.52051H96.8994V0.410156H98.6426ZM112.212 0.410156H116.382V25.6006H112.212V0.410156ZM126.909 14.2529H117.783V11.4502H126.909V14.2529ZM117.783 22.4902H127.969V25.6006H117.783V22.4902ZM127.969 0.410156V3.52051H117.783V0.410156H127.969Z" fill="black"/>
</svg>
