<svg width="21" height="21" viewBox="0 0 21 21" fill="none" xmlns="http://www.w3.org/2000/svg">
<path fill-rule="evenodd" clip-rule="evenodd" d="M15.5015 5.5C15.5015 8.26142 13.2623 10.5 10.5 10.5C7.73777 10.5 5.49851 8.26142 5.49851 5.5C5.49851 2.73858 7.73777 0.5 10.5 0.5C13.2623 0.5 15.5015 2.73858 15.5015 5.5ZM13.501 5.49999C13.501 3.84314 12.1575 2.49999 10.5001 2.49999C8.84275 2.49999 7.49919 3.84314 7.49919 5.49999C7.49919 7.15684 8.84275 8.49999 10.5001 8.49999C12.1575 8.49999 13.501 7.15684 13.501 5.49999ZM20.393 19.05L18.5024 15.26C17.6545 13.5683 15.9239 12.5001 14.0311 12.5H6.96893C5.07614 12.5001 3.34555 13.5683 2.49758 15.26L0.607007 19.05C0.450991 19.3595 0.466419 19.7277 0.647782 20.0231C0.829146 20.3185 1.15058 20.4989 1.49728 20.5H19.5027C19.8494 20.4989 20.1709 20.3185 20.3522 20.0231C20.5336 19.7277 20.549 19.3595 20.393 19.05ZM4.28818 16.16L3.11782 18.5H17.8823L16.7119 16.16C16.2046 15.144 15.167 14.5015 14.0311 14.5H6.96899C5.83315 14.5015 4.79552 15.144 4.28818 16.16Z" fill="black"/>
<path d="M18.5024 15.26L18.9498 15.0368L18.9494 15.0359L18.5024 15.26ZM20.393 19.05L19.9456 19.2732L19.9465 19.275L20.393 19.05ZM14.0311 12.5L14.0311 12H14.0311V12.5ZM6.96893 12.5V12H6.96891L6.96893 12.5ZM2.49758 15.26L2.05059 15.0359L2.05016 15.0368L2.49758 15.26ZM0.607007 19.05L1.0535 19.275L1.05443 19.2732L0.607007 19.05ZM0.647782 20.0231L0.221686 20.2847V20.2847L0.647782 20.0231ZM1.49728 20.5L1.49577 21H1.49728V20.5ZM19.5027 20.5V21L19.5042 21L19.5027 20.5ZM3.11782 18.5L2.67064 18.2763L2.3087 19H3.11782V18.5ZM4.28818 16.16L4.73536 16.3836L4.7355 16.3834L4.28818 16.16ZM17.8823 18.5V19H18.6914L18.3295 18.2763L17.8823 18.5ZM16.7119 16.16L16.2646 16.3834L16.2647 16.3836L16.7119 16.16ZM14.0311 14.5L14.0318 14H14.0311V14.5ZM6.96899 14.5V14H6.96831L6.96899 14.5ZM10.5 10.5V11C13.5383 11 16.0015 8.53771 16.0015 5.5H15.5015H15.0015C15.0015 7.98514 12.9863 10 10.5 10V10.5ZM5.49851 5.5H4.99851C4.99851 8.53771 7.46177 11 10.5 11V10.5V10C8.01377 10 5.99851 7.98514 5.99851 5.5H5.49851ZM10.5 0.5V0C7.46177 0 4.99851 2.46229 4.99851 5.5H5.49851H5.99851C5.99851 3.01486 8.01377 1 10.5 1V0.5ZM15.5015 5.5H16.0015C16.0015 2.46229 13.5383 0 10.5 0V0.5V1C12.9863 1 15.0015 3.01486 15.0015 5.5H15.5015ZM10.5001 2.49999V2.99999C11.8815 2.99999 13.001 4.11942 13.001 5.49999H13.501H14.001C14.001 3.56685 12.4335 1.99999 10.5001 1.99999V2.49999ZM7.49919 5.49999H7.99919C7.99919 4.11942 9.11875 2.99999 10.5001 2.99999V2.49999V1.99999C8.56675 1.99999 6.99919 3.56685 6.99919 5.49999H7.49919ZM10.5001 8.49999V7.99999C9.11875 7.99999 7.99919 6.88056 7.99919 5.49999H7.49919H6.99919C6.99919 7.43313 8.56675 8.99999 10.5001 8.99999V8.49999ZM13.501 5.49999H13.001C13.001 6.88056 11.8815 7.99999 10.5001 7.99999V8.49999V8.99999C12.4335 8.99999 14.001 7.43313 14.001 5.49999H13.501ZM18.5024 15.26L18.055 15.4832L19.9456 19.2732L20.393 19.05L20.8404 18.8268L18.9498 15.0368L18.5024 15.26ZM14.0311 12.5L14.0311 13C15.7347 13 17.2923 13.9615 18.0554 15.484L18.5024 15.26L18.9494 15.0359C18.0166 13.175 16.113 12.0001 14.0311 12L14.0311 12.5ZM6.96893 12.5V13H14.0311V12.5V12H6.96893V12.5ZM2.49758 15.26L2.94457 15.484C3.70773 13.9615 5.2653 13 6.96895 13L6.96893 12.5L6.96891 12C4.88699 12.0001 2.98337 13.175 2.05059 15.0359L2.49758 15.26ZM0.607007 19.05L1.05443 19.2732L2.945 15.4832L2.49758 15.26L2.05016 15.0368L0.159585 18.8268L0.607007 19.05ZM0.647782 20.0231L1.07388 19.7615C0.983211 19.6138 0.975502 19.4298 1.05349 19.275L0.607007 19.05L0.160521 18.8249C-0.073521 19.2892 -0.0503729 19.8416 0.221686 20.2847L0.647782 20.0231ZM1.49728 20.5L1.49879 20C1.32532 19.9995 1.16456 19.9092 1.07388 19.7615L0.647782 20.0231L0.221686 20.2847C0.493735 20.7278 0.975839 20.9984 1.49577 21L1.49728 20.5ZM19.5027 20.5V20H1.49728V20.5V21H19.5027V20.5ZM20.3522 20.0231L19.9261 19.7615C19.8354 19.9092 19.6747 19.9995 19.5012 20L19.5027 20.5L19.5042 21C20.0242 20.9984 20.5063 20.7278 20.7783 20.2847L20.3522 20.0231ZM20.393 19.05L19.9465 19.275C20.0245 19.4298 20.0168 19.6138 19.9261 19.7615L20.3522 20.0231L20.7783 20.2847C21.0504 19.8416 21.0735 19.2892 20.8395 18.8249L20.393 19.05ZM3.11782 18.5L3.56501 18.7236L4.73536 16.3836L4.28818 16.16L3.84099 15.9363L2.67064 18.2763L3.11782 18.5ZM17.8823 18.5V18H3.11782V18.5V19H17.8823V18.5ZM16.7119 16.16L16.2647 16.3836L17.4351 18.7236L17.8823 18.5L18.3295 18.2763L17.1591 15.9363L16.7119 16.16ZM14.0311 14.5L14.0304 15C14.9771 15.0013 15.8418 15.5368 16.2646 16.3834L16.7119 16.16L17.1593 15.9366C16.5673 14.7513 15.3568 14.0018 14.0318 14L14.0311 14.5ZM6.96899 14.5V15H14.0311V14.5V14H6.96899V14.5ZM4.28818 16.16L4.7355 16.3834C5.15828 15.5368 6.023 15.0013 6.96967 15L6.96899 14.5L6.96831 14C5.64329 14.0018 4.43277 14.7513 3.84085 15.9366L4.28818 16.16Z" fill="white"/>
</svg>
